<?xml version="1.0" encoding="UTF-8"?>
<svg version="1.1" xmlns="http://www.w3.org/2000/svg" width="64" height="64">
<path d="M0 0 C6.35557558 4.64039252 11.2429567 9.70960946 13.11328125 17.54296875 C14.29347809 28.32061535 13.37440572 36.79358574 6.5390625 45.5625 C1.522637 51.11681728 -3.90809927 54.10934393 -11.36328125 54.921875 C-16.54556096 55.09098097 -20.69103973 55.03773248 -25.51171875 53.04296875 C-29.24796265 49.11008043 -31.60933599 45.54716508 -32.1171875 40.046875 C-31.8863892 34.43078307 -30.44432868 30.87240005 -26.484375 26.875 C-23.73204095 24.58026672 -21.24478456 23.78131302 -17.75 23.16796875 C-12.38140532 22.17411321 -9.21241987 21.21973595 -5.88671875 16.54296875 C-4.72850114 12.5615957 -4.6757932 10.27417731 -5.82421875 6.29296875 C-8.65476274 2.5189101 -11.24601291 1.24182293 -15.88671875 0.54296875 C-23.22852793 0.7174967 -28.69067454 3.46239219 -33.88671875 8.54296875 C-39.53550157 15.17537047 -40.21874212 20.5009333 -40.18359375 29.015625 C-39.78131676 33.79531084 -38.36790903 36.4828392 -35.88671875 40.54296875 C-35.51069328 41.86489679 -35.16585361 43.19724492 -34.88671875 44.54296875 C-36.20671875 44.54296875 -37.52671875 44.54296875 -38.88671875 44.54296875 C-40.3359375 42.8984375 -40.3359375 42.8984375 -41.57421875 40.73046875 C-41.99058594 40.02277344 -42.40695313 39.31507812 -42.8359375 38.5859375 C-46.3546351 31.7447522 -46.12267419 21.84387198 -44.015625 14.51171875 C-40.38801923 6.80454322 -34.7008182 0.37065346 -26.66796875 -2.79296875 C-17.73212937 -4.9265259 -8.00841911 -4.80505146 0 0 Z M-16.88671875 37.54296875 C-16.88671875 38.86296875 -16.88671875 40.18296875 -16.88671875 41.54296875 C-15.89671875 41.21296875 -14.90671875 40.88296875 -13.88671875 40.54296875 C-14.21671875 39.55296875 -14.54671875 38.56296875 -14.88671875 37.54296875 C-15.54671875 37.54296875 -16.20671875 37.54296875 -16.88671875 37.54296875 Z " fill="#000000" transform="translate(47.88671875,6.45703125)"/>
<path d="M0 0 C1.65 0.33 3.3 0.66 5 1 C5 2.32 5 3.64 5 5 C1.25 6.125 1.25 6.125 -1 5 C-0.67 3.35 -0.34 1.7 0 0 Z " fill="#000000" transform="translate(30,15)"/>
</svg>
